<?xml version="1.0" encoding="UTF-8"?><svg id="Layer_1" xmlns="http://www.w3.org/2000/svg" viewBox="0 0 1977 598"><defs><style>.cls-1{fill:#fff;}</style></defs><path class="cls-1" d="M218.52,200.16c-4.73,0-8.17,3.25-8.17,7.73,0,2.7,.99,4.49,1.85,6.08,1.01,1.85,1.97,3.6,1.97,7.49v36.04c0,3.6-.93,5.26-1.92,7.02-.89,1.59-1.9,3.39-1.9,6.13,0,4.73,3.26,8.16,7.74,8.16,2.69,0,4.49-.98,6.07-1.84,1.85-1.01,3.61-1.97,7.5-1.97h9.75c20.1,0,33.61-14.19,33.61-35.3s-13.85-35.73-36.15-35.73h-7.21c-3.59,0-5.25-.93-7.02-1.92-1.59-.89-3.39-1.89-6.12-1.89m0,115.33c-4.73,0-8.17,3.26-8.17,7.74,0,2.69,.99,4.49,1.85,6.07,1.01,1.85,1.97,3.6,1.97,7.5v39.86c0,3.6-.93,5.26-1.92,7.02-.89,1.59-1.9,3.39-1.9,6.13,0,4.73,3.26,8.16,7.74,8.16,2.69,0,4.49-.98,6.07-1.84,1.85-1.01,3.61-1.97,7.5-1.97h11.87c24.8,0,40.82-14.85,40.82-37.84s-14.69-36.99-37.42-36.99h-15.27c-3.59,0-5.25-.93-7.02-1.92-1.59-.89-3.39-1.9-6.12-1.9m-31.81,128.91c-24.06,0-36.78-12.87-36.78-37.21V190.09c0-24.34,12.72-37.21,36.78-37.21h54.7c25.13,0,47.2,5.85,63.83,16.94,21.42,14.28,32.74,35.95,32.74,62.67,0,29.06-13.14,42.37-26.61,53.5-2.76,2.34-5.13,4.35-4.81,6.99,.3,2.55,2.76,3.78,6.16,5.49,13.14,6.73,40.52,20.75,40.52,65.05,0,21.36-7.03,39.43-20.88,53.7-17.11,17.53-44.44,27.18-76.96,27.18h-68.7Zm758.15,0c-24.33,0-37.21-13.3-37.21-38.48V184.58c0-21.76,11.71-34.24,32.13-34.24s32.12,12.48,32.12,34.24v179.79c0,3.59-.93,5.25-1.92,7.02-.89,1.59-1.89,3.39-1.89,6.12,0,4.73,3.26,8.17,7.74,8.17,2.69,0,4.48-.99,6.07-1.85,1.85-1.01,3.6-1.97,7.5-1.97h40.28c21.98,0,35.09,11.69,35.09,31.28s-13.11,31.27-35.09,31.27h-84.81Zm180.17,0c-24.34,0-37.21-13.3-37.21-38.48V184.58c0-21.76,11.7-34.24,32.12-34.24s32.12,12.48,32.12,34.24v179.79c0,3.59-.93,5.25-1.92,7.02-.88,1.59-1.89,3.39-1.89,6.12,0,4.73,3.26,8.17,7.74,8.17,2.69,0,4.48-.99,6.07-1.85,1.85-1.01,3.6-1.97,7.5-1.97h40.29c21.97,0,35.08,11.69,35.08,31.28s-13.11,31.27-35.08,31.27h-84.81Zm-668.38,2.55c-20.42,0-32.13-12.48-32.13-34.24v-74.62c0-4-1.31-12.59-4.94-19.84l-54.26-114.44c-7.21-15.27-7.8-19.86-7.8-23.89,0-17.41,13.21-29.57,32.13-29.57,14.43,0,24.27,9.15,31.86,29.65l22.05,58.53c2.98,8.12,3.73,12.59,4.52,18.5l.42,2.99c.63,4.34,3.97,7.37,8.14,7.37s7.16-2.91,7.71-7.41l.42-2.92c.82-5.79,1.61-10.19,4.93-18.47l22.9-58.53c9.58-24.84,18.94-29.69,31.88-29.69,18.91,0,32.12,12.16,32.12,29.57,0,4.66-1.32,10.5-7.79,23.86l-55.12,114.5c-3.61,7.22-4.93,15.81-4.93,19.81v74.62c0,21.76-11.71,34.24-32.12,34.24m375.04,0c-20.41,0-32.12-12.48-32.12-34.24V184.58c0-21.76,11.71-34.24,32.12-34.24s32.13,12.48,32.13,34.24v228.12c0,21.76-11.71,34.24-32.13,34.24m907.74,0c-18.47,0-30.53-11.43-36.87-34.93l-29.25-110.24c-3.45-12.95-4.15-16.76-4.15-22.65v-3.81c0-6.51-4.11-9.44-8.17-9.44s-8.58,2.96-8.58,9.44v3.81c0,6.49-.81,11.36-3.74,22.66l-28.83,110.67c-6.07,23.53-17.38,34.48-35.6,34.48-20.9,0-33.69-13.35-40.24-42.03l-47.07-207.77-.45-2.01c-1.42-6.37-2.46-10.96-2.46-16.07,0-17.18,12.57-28.72,31.28-28.72,17.55,0,27.35,9.42,31.75,30.54l22.05,110.23c3.76,18.82,3.76,20.49,3.76,22.8v2.12c0,6.49,4.46,9.44,8.59,9.44s8.16-2.91,8.16-9.44v-2.12c0-5.6,.71-8.48,2.42-15.44,.51-2.04,1.09-4.41,1.76-7.29l26.29-109.81c4.71-20.01,15.99-31.04,31.77-31.04s27.05,11,31.33,30.98l24.18,109.84,.97,4.2c2.91,12.53,3.21,13.84,3.21,18.55v2.12c0,6.52,4.1,9.44,8.16,9.44s8.59-2.95,8.59-9.44v-2.12c0-2.31,0-3.98,3.76-22.8l22.05-110.25c3.89-20.25,14.57-30.51,31.75-30.51,18.7,0,31.27,11.55,31.27,28.72,0,5.05-1.39,11.66-2.9,18.05l-46.65,207.38c-6.75,29.76-18.15,42.45-38.13,42.45M645.29,204.82c-4.72,0-8.16,3.25-8.16,7.74,0,2.69,.99,4.48,1.85,6.07,1.01,1.85,1.96,3.6,1.96,7.5v53.85c0,3.59-.93,5.26-1.92,7.02-.88,1.59-1.89,3.39-1.89,6.13,0,4.73,3.26,8.16,7.74,8.16,2.69,0,4.49-.98,6.07-1.84,1.85-1.02,3.6-1.97,7.5-1.97h10.17c26.44,0,44.21-17.93,44.21-44.63s-17.43-44.2-43.36-44.2h-11.02c-3.59,0-5.25-.93-7.02-1.92-1.59-.89-3.39-1.89-6.13-1.89m-33.5,242.97c-20.41,0-32.12-12.48-32.12-34.24V194.32c0-26.18,13.22-40.59,37.21-40.59h51.73c65.88,0,108.45,39.07,108.45,99.54s-39.24,95.73-99.96,95.73h-15.69c-3.59,0-5.25-.93-7.02-1.92-1.59-.89-3.39-1.9-6.12-1.9-4.73,0-8.17,3.26-8.17,7.74,0,2.69,.99,4.49,1.85,6.07,1.01,1.85,1.97,3.6,1.97,7.5v47.07c0,21.76-11.71,34.24-32.13,34.24m754.8-240.85c-30.98,0-50.99,35.99-50.99,91.7s20.01,91.7,50.99,91.7,50.99-35.99,50.99-91.7-20.01-91.7-50.99-91.7m0,241.7c-71.03,0-116.92-58.88-116.92-150s45.89-150,116.92-150,116.92,58.88,116.92,150-45.89,150-116.92,150"/></svg>